<?xml version="1.0" standalone="yes"?>

<svg version="1.1" viewBox="0.0 0.0 533.5406824146982 298.71128608923885" fill="none" stroke="none" stroke-linecap="square" stroke-miterlimit="10" xmlns="http://www.w3.org/2000/svg" xmlns:xlink="http://www.w3.org/1999/xlink"><clipPath id="p.0"><path d="m0 0l533.5407 0l0 298.71127l-533.5407 0l0 -298.71127z" clip-rule="nonzero"></path></clipPath><g clip-path="url(#p.0)"><path fill="#000000" fill-opacity="0.0" d="m0 0l533.5407 0l0 298.71127l-533.5407 0z" fill-rule="evenodd"></path><path fill="#ead1dc" d="m12.010499 11.6587925l507.24408 0l0 271.3386l-507.24408 0z" fill-rule="evenodd"></path><path stroke="#a64d79" stroke-width="8.0" stroke-linejoin="round" stroke-linecap="butt" d="m12.010499 11.6587925l507.24408 0l0 271.3386l-507.24408 0z" fill-rule="evenodd"></path><path fill="#000000" d="m31.541748 52.027542q0 1.71875 -0.328125 3.09375q-0.3125 1.375 -1.09375 2.34375q-0.765625 0.96875 -2.015625 1.484375q-1.25 0.5 -3.09375 0.5q-0.578125 0 -1.15625 -0.09375q-0.578125 -0.078125 -1.0625 -0.21875q-0.46875 -0.140625 -0.828125 -0.296875q-0.34375 -0.15625 -0.46875 -0.28125q-0.109375 -0.125 -0.1875 -0.265625q-0.078125 -0.140625 -0.140625 -0.359375q-0.0625 -0.21875 -0.078125 -0.546875q-0.015625 -0.34375 -0.015625 -0.84375q0 -0.671875 0.03125 -1.125q0.03125 -0.46875 0.09375 -0.71875q0.0625 -0.265625 0.1875 -0.375q0.140625 -0.109375 0.328125 -0.109375q0.171875 0 0.40625 0.125q0.234375 0.125 0.53125 0.265625q0.296875 0.140625 0.6875 0.265625q0.390625 0.125 0.921875 0.125q0.515625 0 0.921875 -0.140625q0.40625 -0.15625 0.65625 -0.515625q0.265625 -0.359375 0.40625 -0.96875q0.140625 -0.609375 0.140625 -1.5625l0 -17.359375q0 -0.203125 0.125 -0.34375q0.125 -0.140625 0.40625 -0.234375q0.28125 -0.109375 0.78125 -0.15625q0.515625 -0.046875 1.265625 -0.046875q0.734375 0 1.21875 0.046875q0.5 0.046875 0.796875 0.15625q0.3125 0.09375 0.4375 0.234375q0.125 0.140625 0.125 0.34375l0 17.578125zm26.164062 5.109375q0.234375 0.703125 0.296875 1.125q0.0625 0.40625 -0.15625 0.609375q-0.21875 0.203125 -0.765625 0.25q-0.546875 0.0625 -1.5 0.0625q-1.0 0 -1.5625 -0.03125q-0.546875 -0.03125 -0.84375 -0.125q-0.28125 -0.09375 -0.40625 -0.25q-0.109375 -0.15625 -0.1875 -0.40625l-1.703125 -5.078125l-9.5 0l-1.59375 4.9375q-0.078125 0.28125 -0.203125 0.46875q-0.125 0.1875 -0.421875 0.296875q-0.28125 0.109375 -0.796875 0.140625q-0.515625 0.046875 -1.359375 0.046875q-0.890625 0 -1.40625 -0.0625q-0.5 -0.0625 -0.703125 -0.28125q-0.1875 -0.234375 -0.140625 -0.640625q0.0625 -0.40625 0.296875 -1.09375l7.796875 -22.421875q0.125 -0.328125 0.28125 -0.53125q0.15625 -0.21875 0.484375 -0.3125q0.34375 -0.109375 0.953125 -0.140625q0.609375 -0.03125 1.609375 -0.03125q1.140625 0 1.828125 0.03125q0.6875 0.03125 1.0625 0.140625q0.390625 0.09375 0.546875 0.3125q0.171875 0.21875 0.28125 0.59375l7.8125 22.390625zm-11.59375 -18.53125l-0.015625 0l-3.578125 10.75l7.171875 0l-3.578125 -10.75zm33.878906 19.78125q0 0.21875 -0.078125 0.375q-0.078125 0.140625 -0.375 0.25q-0.28125 0.09375 -0.859375 0.125q-0.5625 0.046875 -1.53125 0.046875q-0.828125 0 -1.3125 -0.046875q-0.484375 -0.03125 -0.765625 -0.140625q-0.28125 -0.109375 -0.40625 -0.28125q-0.109375 -0.171875 -0.1875 -0.40625l-2.265625 -5.640625q-0.421875 -0.953125 -0.8125 -1.6875q-0.390625 -0.75 -0.875 -1.25q-0.46875 -0.5 -1.09375 -0.75q-0.625 -0.25 -1.4375 -0.25l-1.609375 0l0 9.625q0 0.1875 -0.125 0.34375q-0.125 0.15625 -0.421875 0.265625q-0.296875 0.09375 -0.78125 0.15625q-0.484375 0.0625 -1.25 0.0625q-0.734375 0 -1.234375 -0.0625q-0.5 -0.0625 -0.796875 -0.15625q-0.296875 -0.109375 -0.421875 -0.265625q-0.109375 -0.15625 -0.109375 -0.34375l0 -22.953125q0 -0.859375 0.4375 -1.234375q0.453125 -0.390625 1.09375 -0.390625l6.546875 0q0.984375 0 1.625 0.046875q0.65625 0.03125 1.1875 0.09375q1.515625 0.21875 2.734375 0.75q1.21875 0.515625 2.0625 1.375q0.859375 0.84375 1.3125 2.015625q0.453125 1.15625 0.453125 2.65625q0 1.265625 -0.328125 2.3125q-0.328125 1.046875 -0.953125 1.875q-0.625 0.8125 -1.546875 1.421875q-0.90625 0.609375 -2.078125 0.96875q0.5625 0.28125 1.0625 0.671875q0.5 0.390625 0.9375 0.953125q0.4375 0.546875 0.828125 1.265625q0.390625 0.703125 0.765625 1.609375l2.125 4.984375q0.296875 0.734375 0.390625 1.078125q0.09375 0.34375 0.09375 0.53125zm-6.609375 -17.140625q0 -1.25 -0.578125 -2.109375q-0.5625 -0.859375 -1.84375 -1.21875q-0.390625 -0.09375 -0.890625 -0.140625q-0.5 -0.0625 -1.375 -0.0625l-2.3125 0l0 7.15625l2.625 0q1.09375 0 1.90625 -0.25q0.828125 -0.265625 1.375 -0.75q0.546875 -0.484375 0.8125 -1.140625q0.28125 -0.671875 0.28125 -1.484375z" fill-rule="nonzero"></path><path fill="#ffe599" d="m28.010498 186.45145l237.41733 0l0 78.61417l-237.41733 0z" fill-rule="evenodd"></path><path stroke="#f1c232" stroke-width="4.0" stroke-linejoin="round" stroke-linecap="butt" d="m28.010498 186.45145l237.41733 0l0 78.61417l-237.41733 0z" fill-rule="evenodd"></path><path fill="#000000" d="m90.85979 229.57228q0 0.71875 -0.328125 1.0625q-0.3125 0.34375 -0.875 0.34375l-8.484375 0q0 0.890625 0.203125 1.625q0.21875 0.71875 0.671875 1.234375q0.46875 0.5 1.1875 0.765625q0.734375 0.265625 1.75 0.265625q1.03125 0 1.8125 -0.140625q0.78125 -0.15625 1.34375 -0.328125q0.578125 -0.1875 0.953125 -0.328125q0.375 -0.15625 0.609375 -0.15625q0.140625 0 0.234375 0.0625q0.09375 0.046875 0.15625 0.1875q0.0625 0.140625 0.078125 0.40625q0.03125 0.25 0.03125 0.640625q0 0.34375 -0.015625 0.59375q-0.015625 0.234375 -0.046875 0.40625q-0.03125 0.171875 -0.09375 0.296875q-0.0625 0.109375 -0.171875 0.21875q-0.09375 0.109375 -0.546875 0.296875q-0.453125 0.1875 -1.15625 0.375q-0.703125 0.171875 -1.609375 0.296875q-0.90625 0.140625 -1.9375 0.140625q-1.859375 0 -3.265625 -0.46875q-1.390625 -0.46875 -2.328125 -1.421875q-0.9375 -0.953125 -1.40625 -2.40625q-0.453125 -1.453125 -0.453125 -3.40625q0 -1.859375 0.484375 -3.34375q0.484375 -1.5 1.40625 -2.53125q0.921875 -1.046875 2.234375 -1.59375q1.328125 -0.546875 2.984375 -0.546875q1.75 0 2.984375 0.515625q1.25 0.515625 2.046875 1.4375q0.796875 0.90625 1.171875 2.15625q0.375 1.25 0.375 2.71875l0 0.625zm-3.8125 -1.125q0.046875 -1.65625 -0.671875 -2.59375q-0.703125 -0.953125 -2.1875 -0.953125q-0.75 0 -1.3125 0.28125q-0.546875 0.28125 -0.921875 0.765625q-0.359375 0.46875 -0.5625 1.125q-0.1875 0.640625 -0.21875 1.375l5.875 0zm20.359375 8.5q0 0.15625 -0.09375 0.28125q-0.09375 0.109375 -0.3125 0.1875q-0.21875 0.078125 -0.609375 0.109375q-0.375 0.046875 -0.9375 0.046875q-0.578125 0 -0.96875 -0.046875q-0.375 -0.03125 -0.59375 -0.109375q-0.21875 -0.078125 -0.3125 -0.1875q-0.09375 -0.125 -0.09375 -0.28125l0 -7.953125q0 -1.015625 -0.15625 -1.59375q-0.140625 -0.578125 -0.421875 -0.984375q-0.28125 -0.421875 -0.734375 -0.640625q-0.4375 -0.234375 -1.03125 -0.234375q-0.75 0 -1.515625 0.546875q-0.765625 0.546875 -1.59375 1.59375l0 9.265625q0 0.15625 -0.09375 0.28125q-0.09375 0.109375 -0.328125 0.1875q-0.21875 0.078125 -0.59375 0.109375q-0.375 0.046875 -0.953125 0.046875q-0.578125 0 -0.953125 -0.046875q-0.375 -0.03125 -0.609375 -0.109375q-0.21875 -0.078125 -0.3125 -0.1875q-0.09375 -0.125 -0.09375 -0.28125l0 -13.9375q0 -0.15625 0.078125 -0.265625q0.078125 -0.125 0.28125 -0.203125q0.203125 -0.078125 0.515625 -0.109375q0.328125 -0.046875 0.8125 -0.046875q0.5 0 0.828125 0.046875q0.328125 0.03125 0.5 0.109375q0.1875 0.078125 0.265625 0.203125q0.078125 0.109375 0.078125 0.265625l0 1.609375q1.15625 -1.25 2.34375 -1.875q1.203125 -0.625 2.5 -0.625q1.421875 0 2.390625 0.46875q0.984375 0.46875 1.578125 1.28125q0.609375 0.796875 0.875 1.875q0.265625 1.078125 0.265625 2.59375l0 8.609375zm12.109375 -1.375q0 0.6875 -0.09375 1.0625q-0.078125 0.359375 -0.21875 0.515625q-0.140625 0.140625 -0.421875 0.265625q-0.265625 0.109375 -0.640625 0.1875q-0.359375 0.09375 -0.796875 0.140625q-0.421875 0.046875 -0.859375 0.046875q-1.171875 0 -2.03125 -0.296875q-0.859375 -0.296875 -1.421875 -0.90625q-0.5625 -0.625 -0.828125 -1.5625q-0.265625 -0.9375 -0.265625 -2.21875l0 -7.140625l-1.671875 0q-0.296875 0 -0.453125 -0.359375q-0.15625 -0.375 -0.15625 -1.234375q0 -0.453125 0.03125 -0.765625q0.046875 -0.3125 0.125 -0.484375q0.078125 -0.1875 0.1875 -0.265625q0.125 -0.078125 0.28125 -0.078125l1.65625 0l0 -3.109375q0 -0.15625 0.078125 -0.28125q0.09375 -0.125 0.3125 -0.203125q0.234375 -0.09375 0.609375 -0.125q0.390625 -0.046875 0.953125 -0.046875q0.578125 0 0.953125 0.046875q0.390625 0.03125 0.609375 0.125q0.21875 0.078125 0.3125 0.203125q0.09375 0.125 0.09375 0.28125l0 3.109375l3.03125 0q0.15625 0 0.265625 0.078125q0.125 0.078125 0.203125 0.265625q0.078125 0.171875 0.109375 0.484375q0.046875 0.3125 0.046875 0.765625q0 0.859375 -0.15625 1.234375q-0.15625 0.359375 -0.453125 0.359375l-3.046875 0l0 6.546875q0 1.140625 0.359375 1.71875q0.359375 0.5625 1.28125 0.5625q0.3125 0 0.5625 -0.046875q0.25 -0.0625 0.4375 -0.125q0.203125 -0.078125 0.328125 -0.125q0.140625 -0.0625 0.25 -0.0625q0.09375 0 0.171875 0.0625q0.09375 0.046875 0.140625 0.21875q0.046875 0.15625 0.078125 0.4375q0.046875 0.28125 0.046875 0.71875zm11.796875 -11.265625q0 0.5625 -0.03125 0.921875q-0.03125 0.359375 -0.09375 0.5625q-0.0625 0.203125 -0.171875 0.28125q-0.09375 0.078125 -0.25 0.078125q-0.125 0 -0.28125 -0.046875q-0.15625 -0.0625 -0.359375 -0.125q-0.1875 -0.0625 -0.421875 -0.109375q-0.234375 -0.0625 -0.515625 -0.0625q-0.328125 0 -0.65625 0.140625q-0.328125 0.125 -0.6875 0.40625q-0.34375 0.28125 -0.734375 0.75q-0.375 0.46875 -0.8125 1.15625l0 8.6875q0 0.15625 -0.09375 0.28125q-0.09375 0.109375 -0.328125 0.1875q-0.21875 0.078125 -0.59375 0.109375q-0.375 0.046875 -0.953125 0.046875q-0.578125 0 -0.953125 -0.046875q-0.375 -0.03125 -0.609375 -0.109375q-0.21875 -0.078125 -0.3125 -0.1875q-0.09375 -0.125 -0.09375 -0.28125l0 -13.9375q0 -0.15625 0.078125 -0.265625q0.078125 -0.125 0.28125 -0.203125q0.203125 -0.078125 0.515625 -0.109375q0.328125 -0.046875 0.8125 -0.046875q0.5 0 0.828125 0.046875q0.328125 0.03125 0.5 0.109375q0.1875 0.078125 0.265625 0.203125q0.078125 0.109375 0.078125 0.265625l0 1.734375q0.546875 -0.78125 1.03125 -1.28125q0.484375 -0.515625 0.921875 -0.8125q0.4375 -0.296875 0.875 -0.40625q0.4375 -0.125 0.875 -0.125q0.203125 0 0.4375 0.03125q0.234375 0.015625 0.484375 0.078125q0.25 0.046875 0.4375 0.125q0.1875 0.0625 0.265625 0.140625q0.09375 0.078125 0.125 0.171875q0.046875 0.09375 0.078125 0.265625q0.03125 0.15625 0.046875 0.484375q0.015625 0.328125 0.015625 0.890625zm10.5 13.171875l-1.6875 4.9375q-0.140625 0.390625 -0.765625 0.5625q-0.625 0.171875 -1.828125 0.171875q-0.625 0 -1.0 -0.0625q-0.375 -0.046875 -0.5625 -0.171875q-0.1875 -0.125 -0.203125 -0.3125q-0.015625 -0.1875 0.09375 -0.453125l1.859375 -4.671875q-0.203125 -0.09375 -0.375 -0.28125q-0.15625 -0.203125 -0.234375 -0.421875l-4.796875 -12.8125q-0.203125 -0.546875 -0.203125 -0.828125q0 -0.296875 0.1875 -0.453125q0.1875 -0.171875 0.625 -0.234375q0.453125 -0.0625 1.1875 -0.0625q0.671875 0 1.0625 0.03125q0.390625 0.015625 0.609375 0.109375q0.21875 0.09375 0.328125 0.296875q0.109375 0.1875 0.21875 0.546875l3.28125 9.328125l0.046875 0l3.0 -9.515625q0.09375 -0.40625 0.234375 -0.53125q0.15625 -0.140625 0.5 -0.203125q0.34375 -0.0625 1.203125 -0.0625q0.671875 0 1.109375 0.0625q0.453125 0.0625 0.65625 0.234375q0.21875 0.171875 0.21875 0.46875q0 0.28125 -0.125 0.671875l-4.640625 13.65625zm21.109375 -7.703125q0 1.859375 -0.40625 3.359375q-0.390625 1.484375 -1.15625 2.53125q-0.765625 1.046875 -1.90625 1.609375q-1.140625 0.5625 -2.609375 0.5625q-0.609375 0 -1.125 -0.125q-0.5 -0.109375 -0.984375 -0.34375q-0.46875 -0.25 -0.9375 -0.609375q-0.46875 -0.359375 -0.96875 -0.84375l0 6.5625q0 0.15625 -0.09375 0.28125q-0.09375 0.125 -0.328125 0.203125q-0.21875 0.09375 -0.59375 0.140625q-0.375 0.046875 -0.953125 0.046875q-0.578125 0 -0.953125 -0.046875q-0.375 -0.046875 -0.609375 -0.140625q-0.21875 -0.078125 -0.3125 -0.203125q-0.09375 -0.125 -0.09375 -0.28125l0 -19.46875q0 -0.15625 0.078125 -0.265625q0.078125 -0.125 0.265625 -0.203125q0.203125 -0.078125 0.515625 -0.109375q0.328125 -0.046875 0.8125 -0.046875q0.46875 0 0.78125 0.046875q0.328125 0.03125 0.515625 0.109375q0.203125 0.078125 0.28125 0.203125q0.078125 0.109375 0.078125 0.265625l0 1.640625q0.609375 -0.625 1.1875 -1.09375q0.59375 -0.484375 1.203125 -0.796875q0.609375 -0.328125 1.25 -0.484375q0.65625 -0.15625 1.390625 -0.15625q1.53125 0 2.609375 0.609375q1.078125 0.59375 1.75 1.640625q0.6875 1.046875 1.0 2.4375q0.3125 1.390625 0.3125 2.96875zm-4.09375 0.28125q0 -0.890625 -0.140625 -1.703125q-0.125 -0.828125 -0.453125 -1.46875q-0.3125 -0.640625 -0.84375 -1.015625q-0.515625 -0.390625 -1.296875 -0.390625q-0.390625 0 -0.78125 0.125q-0.375 0.109375 -0.78125 0.375q-0.390625 0.265625 -0.8125 0.6875q-0.421875 0.421875 -0.890625 1.046875l0 4.59375q0.828125 1.046875 1.578125 1.625q0.75 0.5625 1.5625 0.5625q0.765625 0 1.296875 -0.390625q0.546875 -0.390625 0.890625 -1.015625q0.34375 -0.640625 0.5 -1.4375q0.171875 -0.796875 0.171875 -1.59375zm21.328125 -0.21875q0 1.78125 -0.46875 3.25q-0.46875 1.46875 -1.421875 2.53125q-0.953125 1.0625 -2.390625 1.640625q-1.4375 0.578125 -3.359375 0.578125q-1.859375 0 -3.234375 -0.515625q-1.375 -0.515625 -2.28125 -1.5q-0.90625 -0.984375 -1.34375 -2.421875q-0.4375 -1.4375 -0.4375 -3.28125q0 -1.78125 0.46875 -3.25q0.484375 -1.484375 1.4375 -2.53125q0.953125 -1.0625 2.375 -1.640625q1.4375 -0.578125 3.359375 -0.578125q1.875 0 3.25 0.515625q1.375 0.5 2.265625 1.484375q0.90625 0.984375 1.34375 2.421875q0.4375 1.4375 0.4375 3.296875zm-4.046875 0.15625q0 -1.03125 -0.171875 -1.890625q-0.15625 -0.875 -0.546875 -1.515625q-0.390625 -0.640625 -1.046875 -1.0q-0.640625 -0.359375 -1.625 -0.359375q-0.875 0 -1.53125 0.328125q-0.65625 0.3125 -1.078125 0.9375q-0.421875 0.609375 -0.640625 1.484375q-0.203125 0.859375 -0.203125 1.96875q0 1.03125 0.171875 1.90625q0.171875 0.859375 0.546875 1.5q0.390625 0.640625 1.046875 1.0q0.65625 0.34375 1.625 0.34375q0.890625 0 1.546875 -0.3125q0.65625 -0.328125 1.078125 -0.9375q0.421875 -0.609375 0.625 -1.46875q0.203125 -0.875 0.203125 -1.984375zm11.09375 6.953125q0 0.15625 -0.09375 0.28125q-0.09375 0.109375 -0.328125 0.1875q-0.21875 0.078125 -0.59375 0.109375q-0.375 0.046875 -0.953125 0.046875q-0.578125 0 -0.953125 -0.046875q-0.375 -0.03125 -0.609375 -0.109375q-0.21875 -0.078125 -0.3125 -0.1875q-0.09375 -0.125 -0.09375 -0.28125l0 -13.90625q0 -0.15625 0.09375 -0.265625q0.09375 -0.125 0.3125 -0.203125q0.234375 -0.09375 0.609375 -0.140625q0.375 -0.046875 0.953125 -0.046875q0.578125 0 0.953125 0.046875q0.375 0.046875 0.59375 0.140625q0.234375 0.078125 0.328125 0.203125q0.09375 0.109375 0.09375 0.265625l0 13.90625zm0.296875 -18.65625q0 1.1875 -0.484375 1.640625q-0.484375 0.453125 -1.796875 0.453125q-1.328125 0 -1.796875 -0.4375q-0.453125 -0.4375 -0.453125 -1.578125q0 -1.1875 0.46875 -1.640625q0.484375 -0.46875 1.8125 -0.46875q1.3125 0 1.78125 0.453125q0.46875 0.4375 0.46875 1.578125zm16.9375 18.65625q0 0.15625 -0.09375 0.28125q-0.09375 0.109375 -0.3125 0.1875q-0.21875 0.078125 -0.609375 0.109375q-0.375 0.046875 -0.9375 0.046875q-0.578125 0 -0.96875 -0.046875q-0.375 -0.03125 -0.59375 -0.109375q-0.21875 -0.078125 -0.3125 -0.1875q-0.09375 -0.125 -0.09375 -0.28125l0 -7.953125q0 -1.015625 -0.15625 -1.59375q-0.140625 -0.578125 -0.421875 -0.984375q-0.28125 -0.421875 -0.734375 -0.640625q-0.4375 -0.234375 -1.03125 -0.234375q-0.75 0 -1.515625 0.546875q-0.765625 0.546875 -1.59375 1.59375l0 9.265625q0 0.15625 -0.09375 0.28125q-0.09375 0.109375 -0.328125 0.1875q-0.21875 0.078125 -0.59375 0.109375q-0.375 0.046875 -0.953125 0.046875q-0.578125 0 -0.953125 -0.046875q-0.375 -0.03125 -0.609375 -0.109375q-0.21875 -0.078125 -0.3125 -0.1875q-0.09375 -0.125 -0.09375 -0.28125l0 -13.9375q0 -0.15625 0.078125 -0.265625q0.078125 -0.125 0.28125 -0.203125q0.203125 -0.078125 0.515625 -0.109375q0.328125 -0.046875 0.8125 -0.046875q0.5 0 0.828125 0.046875q0.328125 0.03125 0.5 0.109375q0.1875 0.078125 0.265625 0.203125q0.078125 0.109375 0.078125 0.265625l0 1.609375q1.15625 -1.25 2.34375 -1.875q1.203125 -0.625 2.5 -0.625q1.421875 0 2.390625 0.46875q0.984375 0.46875 1.578125 1.28125q0.609375 0.796875 0.875 1.875q0.265625 1.078125 0.265625 2.59375l0 8.609375zm12.109375 -1.375q0 0.6875 -0.09375 1.0625q-0.078125 0.359375 -0.21875 0.515625q-0.140625 0.140625 -0.421875 0.265625q-0.265625 0.109375 -0.640625 0.1875q-0.359375 0.09375 -0.796875 0.140625q-0.421875 0.046875 -0.859375 0.046875q-1.171875 0 -2.03125 -0.296875q-0.859375 -0.296875 -1.421875 -0.90625q-0.5625 -0.625 -0.828125 -1.5625q-0.265625 -0.9375 -0.265625 -2.21875l0 -7.140625l-1.671875 0q-0.296875 0 -0.453125 -0.359375q-0.15625 -0.375 -0.15625 -1.234375q0 -0.453125 0.03125 -0.765625q0.046875 -0.3125 0.125 -0.484375q0.078125 -0.1875 0.1875 -0.265625q0.125 -0.078125 0.28125 -0.078125l1.65625 0l0 -3.109375q0 -0.15625 0.078125 -0.28125q0.09375 -0.125 0.3125 -0.203125q0.234375 -0.09375 0.609375 -0.125q0.390625 -0.046875 0.953125 -0.046875q0.578125 0 0.953125 0.046875q0.390625 0.03125 0.609375 0.125q0.21875 0.078125 0.3125 0.203125q0.09375 0.125 0.09375 0.28125l0 3.109375l3.03125 0q0.15625 0 0.265625 0.078125q0.125 0.078125 0.203125 0.265625q0.078125 0.171875 0.109375 0.484375q0.046875 0.3125 0.046875 0.765625q0 0.859375 -0.15625 1.234375q-0.15625 0.359375 -0.453125 0.359375l-3.046875 0l0 6.546875q0 1.140625 0.359375 1.71875q0.359375 0.5625 1.28125 0.5625q0.3125 0 0.5625 -0.046875q0.25 -0.0625 0.4375 -0.125q0.203125 -0.078125 0.328125 -0.125q0.140625 -0.0625 0.25 -0.0625q0.09375 0 0.171875 0.0625q0.09375 0.046875 0.140625 0.21875q0.046875 0.15625 0.078125 0.4375q0.046875 0.28125 0.046875 0.71875z" fill-rule="nonzero"></path><path fill="#d9ead3" d="m264.927 27.650919l237.4173 0l0 237.41731l-237.4173 0z" fill-rule="evenodd"></path><path stroke="#6aa84f" stroke-width="4.0" stroke-linejoin="round" stroke-linecap="butt" d="m264.927 27.650919l237.4173 0l0 237.41731l-237.4173 0z" fill-rule="evenodd"></path><path fill="#000000" d="m336.0966 137.64209q0 0.359375 -0.125 0.640625q-0.125 0.28125 -0.34375 0.46875q-0.203125 0.1875 -0.5 0.28125q-0.28125 0.078125 -0.578125 0.078125l-1.75 0q-0.546875 0 -0.953125 -0.109375q-0.390625 -0.109375 -0.734375 -0.390625q-0.328125 -0.296875 -0.640625 -0.78125q-0.3125 -0.5 -0.703125 -1.28125l-5.03125 -9.453133q-0.4375 -0.84375 -0.890625 -1.8125q-0.453125 -0.984375 -0.8125 -1.90625l-0.03125 0q0.0625 1.125 0.09375 2.25q0.03125 1.109375 0.03125 2.296875l0 10.578133q0 0.15625 -0.09375 0.28125q-0.078125 0.125 -0.296875 0.21875q-0.203125 0.078125 -0.5625 0.125q-0.359375 0.046875 -0.921875 0.046875q-0.546875 0 -0.90625 -0.046875q-0.359375 -0.046875 -0.5625 -0.125q-0.203125 -0.09375 -0.28125 -0.21875q-0.078125 -0.125 -0.078125 -0.28125l0 -18.171883q0 -0.734375 0.421875 -1.09375q0.4375 -0.375 1.0625 -0.375l2.203125 0q0.59375 0 1.0 0.109375q0.40625 0.09375 0.71875 0.328125q0.328125 0.234375 0.609375 0.65625q0.28125 0.40625 0.578125 1.015625l3.9375 7.3906326q0.34375 0.671875 0.671875 1.328125q0.34375 0.640625 0.65625 1.296875q0.3125 0.640625 0.609375 1.265625q0.296875 0.625 0.578125 1.25l0.015625 0q-0.046875 -1.09375 -0.078125 -2.28125q-0.015625 -1.1875 -0.015625 -2.265625l0 -9.484383q0 -0.15625 0.09375 -0.28125q0.09375 -0.125 0.3125 -0.21875q0.21875 -0.09375 0.578125 -0.125q0.359375 -0.046875 0.921875 -0.046875q0.53125 0 0.890625 0.046875q0.359375 0.03125 0.546875 0.125q0.203125 0.09375 0.28125 0.21875q0.078125 0.125 0.078125 0.28125l0 18.171883zm16.046875 0.953125q0 0.21875 -0.15625 0.34375q-0.15625 0.125 -0.5 0.171875q-0.328125 0.0625 -0.984375 0.0625q-0.703125 0 -1.03125 -0.0625q-0.3125 -0.046875 -0.453125 -0.171875q-0.125 -0.125 -0.125 -0.34375l0 -1.109375q-0.859375 0.921875 -1.96875 1.4375q-1.09375 0.515625 -2.4375 0.515625q-1.109375 0 -2.046875 -0.296875q-0.921875 -0.28125 -1.609375 -0.84375q-0.671875 -0.578125 -1.046875 -1.421875q-0.375 -0.84375 -0.375 -1.96875q0 -1.21875 0.46875 -2.109375q0.484375 -0.90625 1.421875 -1.484375q0.953125 -0.59375 2.359375 -0.875q1.40625 -0.28125 3.265625 -0.28125l1.359375 0l0 -0.84375q0 -0.65625 -0.140625 -1.140625q-0.125 -0.5000076 -0.4375 -0.8281326q-0.296875 -0.328125 -0.8125 -0.484375q-0.5 -0.15625 -1.25 -0.15625q-0.984375 0 -1.765625 0.21875q-0.765625 0.21875 -1.359375 0.484375q-0.59375 0.265625 -1.0 0.484375q-0.390625 0.21875763 -0.640625 0.21875763q-0.171875 0 -0.3125 -0.109375q-0.125 -0.10938263 -0.21875 -0.31250763q-0.078125 -0.203125 -0.125 -0.5q-0.046875 -0.296875 -0.046875 -0.65625q0 -0.484375 0.078125 -0.765625q0.078125 -0.28125 0.296875 -0.5q0.21875 -0.234375 0.765625 -0.5q0.546875 -0.28125 1.28125 -0.515625q0.734375 -0.234375 1.59375 -0.375q0.875 -0.15625 1.796875 -0.15625q1.640625 0 2.796875 0.328125q1.171875 0.3125 1.921875 0.984375q0.75 0.65625 1.09375 1.703125q0.34375 1.046875 0.34375 2.4843826l0 9.375zm-3.859375 -5.96875l-1.5 0q-0.953125 0 -1.625 0.140625q-0.671875 0.140625 -1.09375 0.421875q-0.421875 0.28125 -0.625 0.6875q-0.1875 0.390625 -0.1875 0.90625q0 0.875 0.546875 1.375q0.5625 0.5 1.546875 0.5q0.828125 0 1.515625 -0.421875q0.703125 -0.421875 1.421875 -1.234375l0 -2.375zm16.03125 4.546875q0 0.6875 -0.09375 1.0625q-0.078125 0.359375 -0.21875 0.515625q-0.140625 0.140625 -0.421875 0.265625q-0.265625 0.109375 -0.640625 0.1875q-0.359375 0.09375 -0.796875 0.140625q-0.421875 0.046875 -0.859375 0.046875q-1.171875 0 -2.03125 -0.296875q-0.859375 -0.296875 -1.421875 -0.90625q-0.5625 -0.625 -0.828125 -1.5625q-0.265625 -0.9375 -0.265625 -2.21875l0 -7.1406326l-1.671875 0q-0.296875 0 -0.453125 -0.359375q-0.15625 -0.375 -0.15625 -1.234375q0 -0.453125 0.03125 -0.765625q0.046875 -0.3125 0.125 -0.484375q0.078125 -0.1875 0.1875 -0.265625q0.125 -0.078125 0.28125 -0.078125l1.65625 0l0 -3.109375q0 -0.15625 0.078125 -0.28125q0.09375 -0.125 0.3125 -0.203125q0.234375 -0.09375 0.609375 -0.125q0.390625 -0.046875 0.953125 -0.046875q0.578125 0 0.953125 0.046875q0.390625 0.03125 0.609375 0.125q0.21875 0.078125 0.3125 0.203125q0.09375 0.125 0.09375 0.28125l0 3.109375l3.03125 0q0.15625 0 0.265625 0.078125q0.125 0.078125 0.203125 0.265625q0.078125 0.171875 0.109375 0.484375q0.046875 0.3125 0.046875 0.765625q0 0.859375 -0.15625 1.234375q-0.15625 0.359375 -0.453125 0.359375l-3.046875 0l0 6.5468826q0 1.140625 0.359375 1.71875q0.359375 0.5625 1.28125 0.5625q0.3125 0 0.5625 -0.046875q0.25 -0.0625 0.4375 -0.125q0.203125 -0.078125 0.328125 -0.125q0.140625 -0.0625 0.25 -0.0625q0.09375 0 0.171875 0.0625q0.09375 0.046875 0.140625 0.21875q0.046875 0.15625 0.078125 0.4375q0.046875 0.28125 0.046875 0.71875zm6.78125 1.375q0 0.15625 -0.09375 0.28125q-0.09375 0.109375 -0.328125 0.1875q-0.21875 0.078125 -0.59375 0.109375q-0.375 0.046875 -0.953125 0.046875q-0.578125 0 -0.953125 -0.046875q-0.375 -0.03125 -0.609375 -0.109375q-0.21875 -0.078125 -0.3125 -0.1875q-0.09375 -0.125 -0.09375 -0.28125l0 -13.906258q0 -0.15625 0.09375 -0.265625q0.09375 -0.125 0.3125 -0.203125q0.234375 -0.09375 0.609375 -0.140625q0.375 -0.046875 0.953125 -0.046875q0.578125 0 0.953125 0.046875q0.375 0.046875 0.59375 0.140625q0.234375 0.078125 0.328125 0.203125q0.09375 0.109375 0.09375 0.265625l0 13.906258zm0.296875 -18.656258q0 1.1875 -0.484375 1.640625q-0.484375 0.453125 -1.796875 0.453125q-1.328125 0 -1.796875 -0.4375q-0.453125 -0.4375 -0.453125 -1.578125q0 -1.1875 0.46875 -1.640625q0.484375 -0.46875 1.8125 -0.46875q1.3125 0 1.78125 0.453125q0.46875 0.4375 0.46875 1.578125zm16.453125 4.703125q0 0.078125 -0.015625 0.1875q0 0.109375 -0.03125 0.25q-0.015625 0.125 -0.0625 0.296875q-0.03125 0.171875 -0.09375 0.390625l-4.1875 12.609383q-0.078125 0.265625 -0.21875 0.4375q-0.125 0.15625 -0.4375 0.25q-0.296875 0.09375 -0.828125 0.125q-0.515625 0.03125 -1.359375 0.03125q-0.828125 0 -1.359375 -0.046875q-0.515625 -0.03125 -0.8125 -0.125q-0.296875 -0.09375 -0.4375 -0.25q-0.125 -0.171875 -0.203125 -0.421875l-4.1875 -12.609383q-0.09375 -0.3125 -0.15625 -0.5625q-0.046875 -0.25 -0.0625 -0.359375q0 -0.109375 0 -0.203125q0 -0.15625 0.078125 -0.265625q0.09375 -0.125 0.3125 -0.203125q0.21875 -0.078125 0.59375 -0.109375q0.390625 -0.03125 0.96875 -0.03125q0.640625 0 1.03125 0.046875q0.390625 0.03125 0.609375 0.109375q0.234375 0.0625 0.328125 0.203125q0.09375 0.125 0.15625 0.3125l3.171875 10.234383l0.09375 0.390625l0.09375 -0.390625l3.125 -10.234383q0.046875 -0.1875 0.140625 -0.3125q0.109375 -0.140625 0.328125 -0.203125q0.21875 -0.078125 0.578125 -0.109375q0.375 -0.046875 0.96875 -0.046875q0.578125 0 0.9375 0.03125q0.375 0.03125 0.578125 0.109375q0.203125 0.078125 0.28125 0.203125q0.078125 0.109375 0.078125 0.265625zm15.1875 6.5781326q0 0.71875 -0.328125 1.0625q-0.3125 0.34375 -0.875 0.34375l-8.484375 0q0 0.890625 0.203125 1.625q0.21875 0.71875 0.671875 1.234375q0.46875 0.5 1.1875 0.765625q0.734375 0.265625 1.75 0.265625q1.03125 0 1.8125 -0.140625q0.78125 -0.15625 1.34375 -0.328125q0.578125 -0.1875 0.953125 -0.328125q0.375 -0.15625 0.609375 -0.15625q0.140625 0 0.234375 0.0625q0.09375 0.046875 0.15625 0.1875q0.0625 0.140625 0.078125 0.40625q0.03125 0.25 0.03125 0.640625q0 0.34375 -0.015625 0.59375q-0.015625 0.234375 -0.046875 0.40625q-0.03125 0.171875 -0.09375 0.296875q-0.0625 0.109375 -0.171875 0.21875q-0.09375 0.109375 -0.546875 0.296875q-0.453125 0.1875 -1.15625 0.375q-0.703125 0.171875 -1.609375 0.296875q-0.90625 0.140625 -1.9375 0.140625q-1.859375 0 -3.265625 -0.46875q-1.390625 -0.46875 -2.328125 -1.421875q-0.9375 -0.953125 -1.40625 -2.40625q-0.453125 -1.453125 -0.453125 -3.40625q0 -1.859375 0.484375 -3.34375q0.484375 -1.5000076 1.40625 -2.5312576q0.921875 -1.046875 2.234375 -1.59375q1.328125 -0.546875 2.984375 -0.546875q1.75 0 2.984375 0.515625q1.25 0.515625 2.046875 1.4375q0.796875 0.90625 1.171875 2.15625q0.375 1.2500076 0.375 2.7187576l0 0.625zm-3.8125 -1.125q0.046875 -1.65625 -0.671875 -2.5937576q-0.703125 -0.953125 -2.1875 -0.953125q-0.75 0 -1.3125 0.28125q-0.546875 0.28125 -0.921875 0.765625q-0.359375 0.46875763 -0.5625 1.1250076q-0.1875 0.640625 -0.21875 1.375l5.875 0zm18.90625 6.78125q0 1.453125 -0.515625 1.953125q-0.5 0.5 -1.8125 0.5q-1.3125 0 -1.8125 -0.484375q-0.5 -0.5 -0.5 -1.875q0 -1.46875 0.5 -1.96875q0.515625 -0.5 1.84375 -0.5q1.296875 0 1.796875 0.5q0.5 0.484375 0.5 1.875zm13.734375 -2.21875q0 1.1875 -0.453125 2.09375q-0.4375 0.90625 -1.25 1.515625q-0.8125 0.609375 -1.921875 0.90625q-1.109375 0.3125 -2.40625 0.3125q-0.78125 0 -1.5 -0.125q-0.703125 -0.109375 -1.265625 -0.28125q-0.5625 -0.1875 -0.9375 -0.375q-0.375 -0.1875 -0.546875 -0.34375q-0.171875 -0.171875 -0.265625 -0.515625q-0.09375 -0.359375 -0.09375 -1.046875q0 -0.453125 0.03125 -0.71875q0.03125 -0.28125 0.09375 -0.4375q0.0625 -0.171875 0.15625 -0.21875q0.09375 -0.0625 0.234375 -0.0625q0.171875 0 0.5 0.203125q0.34375 0.1875 0.84375 0.421875q0.5 0.234375 1.15625 0.4375q0.671875 0.203125 1.515625 0.203125q0.53125 0 0.9375 -0.109375q0.421875 -0.109375 0.71875 -0.3125q0.3125 -0.203125 0.46875 -0.515625q0.15625 -0.3125 0.15625 -0.71875q0 -0.46875 -0.296875 -0.796875q-0.28125 -0.34375 -0.765625 -0.59375q-0.46875 -0.25 -1.078125 -0.46875q-0.59375 -0.21875 -1.234375 -0.484375q-0.625 -0.265625 -1.234375 -0.609375q-0.59375 -0.34375 -1.078125 -0.84375q-0.46875 -0.5 -0.765625 -1.203125q-0.28125 -0.703125 -0.28125 -1.6875q0 -1.0000076 0.390625 -1.8281326q0.390625 -0.84375 1.125 -1.4375q0.734375 -0.59375 1.78125 -0.921875q1.0625 -0.328125 2.375 -0.328125q0.65625 0 1.265625 0.09375q0.625 0.09375 1.125 0.234375q0.5 0.140625 0.84375 0.3125q0.34375 0.15625 0.484375 0.28125q0.15625 0.109375 0.21875 0.234375q0.0625 0.109375 0.09375 0.28125q0.03125 0.15625 0.046875 0.40625q0.03125 0.234375 0.03125 0.59375q0 0.421875 -0.03125 0.6875q-0.015625 0.265625 -0.078125 0.421875q-0.046875 0.15625 -0.140625 0.21875q-0.09375 0.046875 -0.21875 0.046875q-0.140625 0 -0.4375 -0.15625q-0.296875 -0.171875 -0.75 -0.359375q-0.4375 -0.1875 -1.03125 -0.34375q-0.578125 -0.171875 -1.328125 -0.171875q-0.53125 0 -0.921875 0.109375q-0.390625 0.109375 -0.640625 0.3125q-0.25 0.203125 -0.375 0.484375q-0.125 0.265625 -0.125 0.578125q0 0.48438263 0.296875 0.8125076q0.296875 0.328125 0.78125 0.578125q0.484375 0.25 1.09375 0.46875q0.625 0.21875 1.25 0.484375q0.640625 0.25 1.25 0.59375q0.625 0.34375 1.109375 0.84375q0.484375 0.5 0.78125 1.203125q0.296875 0.6875 0.296875 1.640625zm17.046875 -3.171875q0 1.78125 -0.46875 3.25q-0.46875 1.46875 -1.421875 2.53125q-0.953125 1.0625 -2.390625 1.640625q-1.4375 0.578125 -3.359375 0.578125q-1.859375 0 -3.234375 -0.515625q-1.375 -0.515625 -2.28125 -1.5q-0.90625 -0.984375 -1.34375 -2.421875q-0.4375 -1.4375 -0.4375 -3.28125q0 -1.78125 0.46875 -3.25q0.484375 -1.4843826 1.4375 -2.5312576q0.953125 -1.0625 2.375 -1.640625q1.4375 -0.578125 3.359375 -0.578125q1.875 0 3.25 0.515625q1.375 0.5 2.265625 1.484375q0.90625 0.984375 1.34375 2.4218826q0.4375 1.4375 0.4375 3.296875zm-4.046875 0.15625q0 -1.03125 -0.171875 -1.890625q-0.15625 -0.875 -0.546875 -1.515625q-0.390625 -0.6406326 -1.046875 -1.0000076q-0.640625 -0.359375 -1.625 -0.359375q-0.875 0 -1.53125 0.328125q-0.65625 0.3125 -1.078125 0.9375076q-0.421875 0.609375 -0.640625 1.484375q-0.203125 0.859375 -0.203125 1.96875q0 1.03125 0.171875 1.90625q0.171875 0.859375 0.546875 1.5q0.390625 0.640625 1.046875 1.0q0.65625 0.34375 1.625 0.34375q0.890625 0 1.546875 -0.3125q0.65625 -0.328125 1.078125 -0.9375q0.421875 -0.609375 0.625 -1.46875q0.203125 -0.875 0.203125 -1.984375z" fill-rule="nonzero"></path><path fill="#000000" d="m295.83878 155.70459q-1.3125 3.046875 -1.984375 6.296875q-0.671875 3.234375 -0.671875 6.640625q0 3.421875 0.671875 6.65625q0.6875 3.21875 1.96875 6.3125q0.09375 0.25 0.09375 0.421875q0 0.1875 -0.171875 0.3125q-0.171875 0.125 -0.53125 0.1875q-0.34375 0.0625 -0.96875 0.0625q-0.4375 0 -0.75 -0.03125q-0.3125 -0.03125 -0.53125 -0.09375q-0.203125 -0.046875 -0.328125 -0.140625q-0.109375 -0.078125 -0.15625 -0.1875q-0.84375 -1.625 -1.46875 -3.28125q-0.625 -1.640625 -1.046875 -3.3125q-0.40625 -1.6875 -0.609375 -3.390625q-0.203125 -1.71875 -0.203125 -3.484375q0 -1.75 0.203125 -3.453125q0.21875 -1.71875 0.640625 -3.390625q0.421875 -1.6875 1.03125 -3.34375q0.625 -1.65625 1.453125 -3.296875q0.03125 -0.078125 0.125 -0.140625q0.09375 -0.0625 0.28125 -0.109375q0.1875 -0.0625 0.5 -0.078125q0.328125 -0.03125 0.828125 -0.03125q0.5625 0 0.921875 0.0625q0.359375 0.046875 0.546875 0.15625q0.1875 0.109375 0.203125 0.28125q0.03125 0.171875 -0.046875 0.375zm19.59375 20.8125q0 0.15625 -0.109375 0.28125q-0.09375 0.125 -0.328125 0.203125q-0.234375 0.078125 -0.625 0.125q-0.390625 0.046875 -0.984375 0.046875q-0.609375 0 -1.015625 -0.046875q-0.390625 -0.046875 -0.625 -0.125q-0.21875 -0.078125 -0.328125 -0.203125q-0.09375 -0.125 -0.09375 -0.28125l0 -8.171875l-7.5625 0l0 8.171875q0 0.15625 -0.09375 0.28125q-0.09375 0.125 -0.328125 0.203125q-0.234375 0.078125 -0.625 0.125q-0.390625 0.046875 -1.0 0.046875q-0.59375 0 -1.0 -0.046875q-0.390625 -0.046875 -0.625 -0.125q-0.234375 -0.078125 -0.34375 -0.203125q-0.09375 -0.125 -0.09375 -0.28125l0 -19.09375q0 -0.15625 0.09375 -0.28125q0.109375 -0.125 0.34375 -0.203125q0.234375 -0.078125 0.625 -0.125q0.40625 -0.046875 1.0 -0.046875q0.609375 0 1.0 0.046875q0.390625 0.046875 0.625 0.125q0.234375 0.078125 0.328125 0.203125q0.09375 0.125 0.09375 0.28125l0 7.421875l7.5625 0l0 -7.421875q0 -0.15625 0.09375 -0.28125q0.109375 -0.125 0.328125 -0.203125q0.234375 -0.078125 0.625 -0.125q0.40625 -0.046875 1.015625 -0.046875q0.59375 0 0.984375 0.046875q0.390625 0.046875 0.625 0.125q0.234375 0.078125 0.328125 0.203125q0.109375 0.125 0.109375 0.28125l0 19.09375zm16.046875 0.078125q0 0.21875 -0.15625 0.34375q-0.15625 0.125 -0.5 0.171875q-0.328125 0.0625 -0.984375 0.0625q-0.703125 0 -1.03125 -0.0625q-0.3125 -0.046875 -0.453125 -0.171875q-0.125 -0.125 -0.125 -0.34375l0 -1.109375q-0.859375 0.921875 -1.96875 1.4375q-1.09375 0.515625 -2.4375 0.515625q-1.109375 0 -2.046875 -0.296875q-0.921875 -0.28125 -1.609375 -0.84375q-0.671875 -0.578125 -1.046875 -1.421875q-0.375 -0.84375 -0.375 -1.96875q0 -1.21875 0.46875 -2.109375q0.484375 -0.90625 1.421875 -1.484375q0.953125 -0.59375 2.359375 -0.875q1.40625 -0.28125 3.265625 -0.28125l1.359375 0l0 -0.84375q0 -0.65625 -0.140625 -1.140625q-0.125 -0.5 -0.4375 -0.828125q-0.296875 -0.328125 -0.8125 -0.484375q-0.5 -0.15625 -1.25 -0.15625q-0.984375 0 -1.765625 0.21875q-0.765625 0.21875 -1.359375 0.484375q-0.59375 0.265625 -1.0 0.484375q-0.390625 0.21875 -0.640625 0.21875q-0.171875 0 -0.3125 -0.109375q-0.125 -0.109375 -0.21875 -0.3125q-0.078125 -0.203125 -0.125 -0.5q-0.046875 -0.296875 -0.046875 -0.65625q0 -0.484375 0.078125 -0.765625q0.078125 -0.28125 0.296875 -0.5q0.21875 -0.234375 0.765625 -0.5q0.546875 -0.28125 1.28125 -0.515625q0.734375 -0.234375 1.59375 -0.375q0.875 -0.15625 1.796875 -0.15625q1.640625 0 2.796875 0.328125q1.171875 0.3125 1.921875 0.984375q0.75 0.65625 1.09375 1.703125q0.34375 1.046875 0.34375 2.484375l0 9.375zm-3.859375 -5.96875l-1.5 0q-0.953125 0 -1.625 0.140625q-0.671875 0.140625 -1.09375 0.421875q-0.421875 0.28125 -0.625 0.6875q-0.1875 0.390625 -0.1875 0.90625q0 0.875 0.546875 1.375q0.5625 0.5 1.546875 0.5q0.828125 0 1.515625 -0.421875q0.703125 -0.421875 1.421875 -1.234375l0 -2.375zm17.59375 1.984375q0 1.1875 -0.453125 2.09375q-0.4375 0.90625 -1.25 1.515625q-0.8125 0.609375 -1.921875 0.90625q-1.109375 0.3125 -2.40625 0.3125q-0.78125 0 -1.5 -0.125q-0.703125 -0.109375 -1.265625 -0.28125q-0.5625 -0.1875 -0.9375 -0.375q-0.375 -0.1875 -0.546875 -0.34375q-0.171875 -0.171875 -0.265625 -0.515625q-0.09375 -0.359375 -0.09375 -1.046875q0 -0.453125 0.03125 -0.71875q0.03125 -0.28125 0.09375 -0.4375q0.0625 -0.171875 0.15625 -0.21875q0.09375 -0.0625 0.234375 -0.0625q0.171875 0 0.5 0.203125q0.34375 0.1875 0.84375 0.421875q0.5 0.234375 1.15625 0.4375q0.671875 0.203125 1.515625 0.203125q0.53125 0 0.9375 -0.109375q0.421875 -0.109375 0.71875 -0.3125q0.3125 -0.203125 0.46875 -0.515625q0.15625 -0.3125 0.15625 -0.71875q0 -0.46875 -0.296875 -0.796875q-0.28125 -0.34375 -0.765625 -0.59375q-0.46875 -0.25 -1.078125 -0.46875q-0.59375 -0.21875 -1.234375 -0.484375q-0.625 -0.265625 -1.234375 -0.609375q-0.59375 -0.34375 -1.078125 -0.84375q-0.46875 -0.5 -0.765625 -1.203125q-0.28125 -0.703125 -0.28125 -1.6875q0 -1.0 0.390625 -1.828125q0.390625 -0.84375 1.125 -1.4375q0.734375 -0.59375 1.78125 -0.921875q1.0625 -0.328125 2.375 -0.328125q0.65625 0 1.265625 0.09375q0.625 0.09375 1.125 0.234375q0.5 0.140625 0.84375 0.3125q0.34375 0.15625 0.484375 0.28125q0.15625 0.109375 0.21875 0.234375q0.0625 0.109375 0.09375 0.28125q0.03125 0.15625 0.046875 0.40625q0.03125 0.234375 0.03125 0.59375q0 0.421875 -0.03125 0.6875q-0.015625 0.265625 -0.078125 0.421875q-0.046875 0.15625 -0.140625 0.21875q-0.09375 0.046875 -0.21875 0.046875q-0.140625 0 -0.4375 -0.15625q-0.296875 -0.171875 -0.75 -0.359375q-0.4375 -0.1875 -1.03125 -0.34375q-0.578125 -0.171875 -1.328125 -0.171875q-0.53125 0 -0.921875 0.109375q-0.390625 0.109375 -0.640625 0.3125q-0.25 0.203125 -0.375 0.484375q-0.125 0.265625 -0.125 0.578125q0 0.484375 0.296875 0.8125q0.296875 0.328125 0.78125 0.578125q0.484375 0.25 1.09375 0.46875q0.625 0.21875 1.25 0.484375q0.640625 0.25 1.25 0.59375q0.625 0.34375 1.109375 0.84375q0.484375 0.5 0.78125 1.203125q0.296875 0.6875 0.296875 1.640625zm15.90625 3.953125q0 0.15625 -0.09375 0.28125q-0.078125 0.109375 -0.3125 0.1875q-0.21875 0.0625 -0.609375 0.09375q-0.390625 0.046875 -1.015625 0.046875q-0.640625 0 -1.046875 -0.03125q-0.390625 -0.03125 -0.65625 -0.09375q-0.25 -0.078125 -0.390625 -0.203125q-0.140625 -0.125 -0.25 -0.328125l-4.640625 -7.34375l0 7.375q0 0.15625 -0.09375 0.28125q-0.09375 0.109375 -0.328125 0.1875q-0.21875 0.078125 -0.59375 0.109375q-0.375 0.046875 -0.953125 0.046875q-0.578125 0 -0.953125 -0.046875q-0.375 -0.03125 -0.609375 -0.109375q-0.21875 -0.078125 -0.3125 -0.1875q-0.09375 -0.125 -0.09375 -0.28125l0 -20.546875q0 -0.15625 0.09375 -0.28125q0.09375 -0.125 0.3125 -0.203125q0.234375 -0.09375 0.609375 -0.140625q0.375 -0.046875 0.953125 -0.046875q0.578125 0 0.953125 0.046875q0.375 0.046875 0.59375 0.140625q0.234375 0.078125 0.328125 0.203125q0.09375 0.125 0.09375 0.28125l0 12.234375l4.125 -5.546875q0.125 -0.1875 0.28125 -0.328125q0.15625 -0.140625 0.40625 -0.21875q0.265625 -0.078125 0.640625 -0.109375q0.390625 -0.046875 0.984375 -0.046875q0.578125 0 0.96875 0.046875q0.40625 0.03125 0.640625 0.109375q0.25 0.078125 0.34375 0.203125q0.09375 0.109375 0.09375 0.28125q0 0.234375 -0.125 0.5q-0.109375 0.265625 -0.34375 0.5625l-4.078125 4.625l4.71875 7.296875q0.1875 0.3125 0.265625 0.546875q0.09375 0.21875 0.09375 0.40625zm15.28125 -7.390625q0 0.71875 -0.328125 1.0625q-0.3125 0.34375 -0.875 0.34375l-8.484375 0q0 0.890625 0.203125 1.625q0.21875 0.71875 0.671875 1.234375q0.46875 0.5 1.1875 0.765625q0.734375 0.265625 1.75 0.265625q1.03125 0 1.8125 -0.140625q0.78125 -0.15625 1.34375 -0.328125q0.578125 -0.1875 0.953125 -0.328125q0.375 -0.15625 0.609375 -0.15625q0.140625 0 0.234375 0.0625q0.09375 0.046875 0.15625 0.1875q0.0625 0.140625 0.078125 0.40625q0.03125 0.25 0.03125 0.640625q0 0.34375 -0.015625 0.59375q-0.015625 0.234375 -0.046875 0.40625q-0.03125 0.171875 -0.09375 0.296875q-0.0625 0.109375 -0.171875 0.21875q-0.09375 0.109375 -0.546875 0.296875q-0.453125 0.1875 -1.15625 0.375q-0.703125 0.171875 -1.609375 0.296875q-0.90625 0.140625 -1.9375 0.140625q-1.859375 0 -3.265625 -0.46875q-1.390625 -0.46875 -2.328125 -1.421875q-0.9375 -0.953125 -1.40625 -2.40625q-0.453125 -1.453125 -0.453125 -3.40625q0 -1.859375 0.484375 -3.34375q0.484375 -1.5 1.40625 -2.53125q0.921875 -1.046875 2.234375 -1.59375q1.328125 -0.546875 2.984375 -0.546875q1.75 0 2.984375 0.515625q1.25 0.515625 2.046875 1.4375q0.796875 0.90625 1.171875 2.15625q0.375 1.25 0.375 2.71875l0 0.625zm-3.8125 -1.125q0.046875 -1.65625 -0.671875 -2.59375q-0.703125 -0.953125 -2.1875 -0.953125q-0.75 0 -1.3125 0.28125q-0.546875 0.28125 -0.921875 0.765625q-0.359375 0.46875 -0.5625 1.125q-0.1875 0.640625 -0.21875 1.375l5.875 0zm10.984375 8.5q0 0.15625 -0.09375 0.28125q-0.09375 0.109375 -0.328125 0.1875q-0.21875 0.078125 -0.59375 0.109375q-0.375 0.046875 -0.953125 0.046875q-0.578125 0 -0.953125 -0.046875q-0.375 -0.03125 -0.609375 -0.109375q-0.21875 -0.078125 -0.3125 -0.1875q-0.09375 -0.125 -0.09375 -0.28125l0 -20.546875q0 -0.15625 0.09375 -0.28125q0.09375 -0.125 0.3125 -0.203125q0.234375 -0.09375 0.609375 -0.140625q0.375 -0.046875 0.953125 -0.046875q0.578125 0 0.953125 0.046875q0.375 0.046875 0.59375 0.140625q0.234375 0.078125 0.328125 0.203125q0.09375 0.125 0.09375 0.28125l0 20.546875zm7.859375 0q0 0.15625 -0.09375 0.28125q-0.09375 0.109375 -0.328125 0.1875q-0.21875 0.078125 -0.59375 0.109375q-0.375 0.046875 -0.953125 0.046875q-0.578125 0 -0.953125 -0.046875q-0.375 -0.03125 -0.609375 -0.109375q-0.21875 -0.078125 -0.3125 -0.1875q-0.09375 -0.125 -0.09375 -0.28125l0 -20.546875q0 -0.15625 0.09375 -0.28125q0.09375 -0.125 0.3125 -0.203125q0.234375 -0.09375 0.609375 -0.140625q0.375 -0.046875 0.953125 -0.046875q0.578125 0 0.953125 0.046875q0.375 0.046875 0.59375 0.140625q0.234375 0.078125 0.328125 0.203125q0.09375 0.125 0.09375 0.28125l0 20.546875zm5.890625 4.578125q-0.078125 0.203125 -0.203125 0.328125q-0.125 0.125 -0.359375 0.203125q-0.21875 0.078125 -0.5625 0.109375q-0.328125 0.046875 -0.84375 0.046875q-0.640625 0 -1.046875 -0.0625q-0.40625 -0.0625 -0.625 -0.1875q-0.203125 -0.125 -0.234375 -0.328125q-0.03125 -0.1875 0.0625 -0.453125l9.34375 -26.234375q0.0625 -0.203125 0.1875 -0.328125q0.125 -0.140625 0.34375 -0.21875q0.21875 -0.078125 0.5625 -0.109375q0.359375 -0.046875 0.859375 -0.046875q0.65625 0 1.046875 0.0625q0.40625 0.0625 0.609375 0.1875q0.203125 0.125 0.234375 0.328125q0.03125 0.1875 -0.046875 0.453125l-9.328125 26.25zm26.0 -7.109375q0 0.390625 -0.03125 0.671875q-0.015625 0.265625 -0.0625 0.46875q-0.046875 0.1875 -0.125 0.328125q-0.078125 0.140625 -0.25 0.328125q-0.171875 0.171875 -0.671875 0.453125q-0.484375 0.28125 -1.203125 0.546875q-0.703125 0.25 -1.625 0.421875q-0.90625 0.171875 -1.96875 0.171875q-2.078125 0 -3.75 -0.640625q-1.671875 -0.640625 -2.84375 -1.90625q-1.171875 -1.28125 -1.796875 -3.1875q-0.625 -1.90625 -0.625 -4.4375q0 -2.578125 0.6875 -4.578125q0.6875 -2.0 1.921875 -3.359375q1.234375 -1.359375 2.953125 -2.0625q1.734375 -0.703125 3.8125 -0.703125q0.84375 0 1.625 0.140625q0.78125 0.140625 1.4375 0.375q0.671875 0.21875 1.203125 0.515625q0.53125 0.296875 0.734375 0.515625q0.21875 0.203125 0.296875 0.34375q0.078125 0.140625 0.125 0.359375q0.046875 0.21875 0.0625 0.515625q0.03125 0.296875 0.03125 0.734375q0 0.46875 -0.03125 0.796875q-0.03125 0.328125 -0.109375 0.53125q-0.078125 0.203125 -0.1875 0.296875q-0.109375 0.09375 -0.25 0.09375q-0.234375 0 -0.59375 -0.265625q-0.359375 -0.28125 -0.9375 -0.609375q-0.5625 -0.34375 -1.359375 -0.609375q-0.78125 -0.28125 -1.875 -0.28125q-1.203125 0 -2.15625 0.5q-0.9375 0.484375 -1.609375 1.40625q-0.65625 0.90625 -1.0 2.203125q-0.34375 1.296875 -0.34375 2.921875q0 1.78125 0.359375 3.09375q0.375 1.296875 1.046875 2.140625q0.6875 0.84375 1.640625 1.265625q0.96875 0.40625 2.171875 0.40625q1.09375 0 1.890625 -0.25q0.796875 -0.265625 1.359375 -0.578125q0.578125 -0.3125 0.9375 -0.5625q0.375 -0.25 0.578125 -0.25q0.15625 0 0.25 0.0625q0.09375 0.0625 0.15625 0.25q0.0625 0.1875 0.09375 0.53125q0.03125 0.328125 0.03125 0.890625zm4.6875 7.109375q-0.078125 0.203125 -0.203125 0.328125q-0.125 0.125 -0.359375 0.203125q-0.21875 0.078125 -0.5625 0.109375q-0.328125 0.046875 -0.84375 0.046875q-0.640625 0 -1.046875 -0.0625q-0.40625 -0.0625 -0.625 -0.1875q-0.203125 -0.125 -0.234375 -0.328125q-0.03125 -0.1875 0.0625 -0.453125l9.34375 -26.234375q0.0625 -0.203125 0.1875 -0.328125q0.125 -0.140625 0.34375 -0.21875q0.21875 -0.078125 0.5625 -0.109375q0.359375 -0.046875 0.859375 -0.046875q0.65625 0 1.046875 0.0625q0.40625 0.0625 0.609375 0.1875q0.203125 0.125 0.234375 0.328125q0.03125 0.1875 -0.046875 0.453125l-9.328125 26.25z" fill-rule="nonzero"></path><path fill="#000000" d="m462.2919 177.07959l0 -4.390625l4.40625 0l0 4.390625l-4.40625 0zm-10.65625 0l0 -4.390625l4.390625 0l0 4.390625l-4.390625 0zm-10.671875 0l0 -4.390625l4.390625 0l0 4.390625l-4.390625 0z" fill-rule="nonzero"></path><path fill="#000000" d="m478.1044 168.67334q0 1.765625 -0.203125 3.484375q-0.203125 1.703125 -0.625 3.390625q-0.40625 1.671875 -1.03125 3.3125q-0.609375 1.65625 -1.453125 3.28125q-0.046875 0.109375 -0.171875 0.1875q-0.109375 0.09375 -0.328125 0.140625q-0.203125 0.0625 -0.515625 0.09375q-0.3125 0.03125 -0.75 0.03125q-0.640625 0 -1.0 -0.0625q-0.34375 -0.0625 -0.515625 -0.1875q-0.171875 -0.125 -0.171875 -0.3125q0 -0.171875 0.09375 -0.421875q1.296875 -3.0625 1.96875 -6.296875q0.6875 -3.25 0.6875 -6.671875q0 -3.40625 -0.671875 -6.640625q-0.671875 -3.25 -2.0 -6.296875q-0.078125 -0.203125 -0.0625 -0.375q0.03125 -0.171875 0.21875 -0.28125q0.203125 -0.109375 0.546875 -0.15625q0.359375 -0.0625 0.9375 -0.0625q0.484375 0 0.796875 0.03125q0.3125 0.015625 0.515625 0.078125q0.203125 0.046875 0.28125 0.109375q0.09375 0.0625 0.140625 0.140625q1.625 3.28125 2.46875 6.640625q0.84375 3.34375 0.84375 6.84375z" fill-rule="nonzero"></path><path fill="#000000" fill-opacity="0.0" d="m314.33334 226.98688l-69.38583 0" fill-rule="evenodd"></path><path stroke="#000000" stroke-width="8.0" stroke-linejoin="round" stroke-linecap="butt" d="m266.33334 226.98688l-21.385834 0" fill-rule="evenodd"></path><path fill="#000000" stroke="#000000" stroke-width="8.0" stroke-linecap="butt" d="m266.33334 240.20073l36.30478 -13.213852l-36.30478 -13.213867z" fill-rule="evenodd"></path><path fill="#000000" fill-opacity="0.0" d="m59.875088 226.98688l-69.385826 0" fill-rule="evenodd"></path><path stroke="#000000" stroke-width="8.0" stroke-linejoin="round" stroke-linecap="butt" d="m11.875089 226.98688l-21.385826 0" fill-rule="evenodd"></path><path fill="#000000" stroke="#000000" stroke-width="8.0" stroke-linecap="butt" d="m11.875089 240.20073l36.304783 -13.213852l-36.304783 -13.213867z" fill-rule="evenodd"></path></g></svg>

